<?xml version="1.0" standalone="no"?><!DOCTYPE svg PUBLIC "-//W3C//DTD SVG 1.1//EN" "http://www.w3.org/Graphics/SVG/1.1/DTD/svg11.dtd"><svg t="1713694279933" class="icon" viewBox="0 0 1024 1024" version="1.1" xmlns="http://www.w3.org/2000/svg" p-id="5716" width="512" height="512" data-spm-anchor-id="a313x.search_index.0.i13.5cbd3a81HfVDmp" xmlns:xlink="http://www.w3.org/1999/xlink"><path d="M437.1 761.5c-4 0-8.1-1-11.8-2.9-8.1-4.4-13.2-12.8-13.2-22.1V496.9c0-9.2 5.1-17.7 13.2-22 8-4.4 18-3.8 25.6 1.2l179.7 119.8c6.9 4.6 11.1 12.4 11.1 20.8s-4.1 16.1-11.1 20.8L451 757.2c-4.2 2.8-9 4.3-13.9 4.3z m25-218v146.3l109.7-73.1-109.7-73.2zM527 364.9c-6.4 0-12.8-2.4-17.7-7.3L389.5 237.8c-9.7-9.7-9.7-25.6 0-35.3 9.7-9.7 25.6-9.7 35.3 0L527 304.7l192-192.1c9.7-9.7 25.6-9.7 35.3 0s9.7 25.6 0 35.3L544.6 357.6c-4.8 4.9-11.2 7.3-17.6 7.3z" fill="#FF3399" p-id="5717"></path><path d="M512 364.6c78.4 0 157.9 4 235.6 11.9 44.5 5.1 95.1 52.4 101.9 94.9 14.1 96.4 14.1 194.2 0.1 289.9-6.9 43.2-57.5 90.5-101.4 95.5-78.4 7.9-157.9 11.9-236.2 11.9-78.4 0-157.9-4-235.6-11.9-44.5-5.1-95.1-52.4-101.9-94.9-14.1-96.4-14.1-194.2-0.1-289.9 6.9-43.2 57.5-90.5 101.4-95.5 78.3-7.8 157.8-11.9 236.2-11.9m0-49.9c-80.4 0-160.8 4.1-241.3 12.2-65.4 7.4-135 70.8-145.6 137.3-14.9 101.7-14.9 203.4 0 305 10.7 66.5 80.3 129.8 145.6 137.3 80.4 8.1 160.8 12.2 241.3 12.2 80.4 0 160.8-4.1 241.3-12.2 65.4-7.4 135-70.8 145.6-137.3 14.9-101.7 14.9-203.3 0-305-10.7-66.5-80.3-129.8-145.6-137.3-80.5-8.1-160.9-12.2-241.3-12.2z" fill="#FF3399" p-id="5718"></path></svg>