<?xml version="1.0" standalone="no"?><!DOCTYPE svg PUBLIC "-//W3C//DTD SVG 1.1//EN" "http://www.w3.org/Graphics/SVG/1.1/DTD/svg11.dtd"><svg t="1713706666045" class="icon" viewBox="0 0 1024 1024" version="1.1" xmlns="http://www.w3.org/2000/svg" p-id="16087" width="512" height="512" xmlns:xlink="http://www.w3.org/1999/xlink"><path d="M895.68 276.288l-8.512-8.512-105.664-105.152-98.816-98.304A0.896 0.896 0 0 0 681.984 64H148.096A20.096 20.096 0 0 0 128 84.032v855.936c0 11.008 9.024 20.032 20.096 20.032h727.808c11.072 0 20.096-8.96 20.096-20.032V277.056a1.088 1.088 0 0 0-0.32-0.64z m-585.472 63.68h64.128c0.576 0 1.088 0.32 1.28 0.832l125.696 299.392c4.16 9.92 7.36 21.376 9.472 34.56h1.536c1.664-11.52 5.12-23.104 10.496-35.008l128-298.88c0.256-0.64 0.64-0.832 1.28-0.832h61.632c0.96 0 1.664 0.96 1.28 1.92L544.128 723.2c-0.256 0.512-0.64 0.768-1.28 0.768H477.824c-0.64 0-1.152-0.256-1.28-0.768L308.928 341.952c-0.384-0.832 0.32-1.92 1.28-1.92z m369.92 514.944a1.024 1.024 0 0 1-0.96 0.96H344.832a1.024 1.024 0 0 1-1.024-0.96v-57.728c0-0.512 0.448-0.96 1.024-0.96h334.208c0.512 0 1.024 0.384 1.024 0.96v57.728h0.128z m138.944-567.936h-146.112a1.024 1.024 0 0 1-1.024-0.96V140.48c0-0.896 1.088-1.28 1.728-0.64l66.752 66.368 79.36 79.104c0.704 0.64 0.256 1.664-0.64 1.664z" fill="#557CEC" p-id="16088"></path></svg>