<?xml version="1.0" standalone="no"?><!DOCTYPE svg PUBLIC "-//W3C//DTD SVG 1.1//EN" "http://www.w3.org/Graphics/SVG/1.1/DTD/svg11.dtd"><svg t="1713794092001" class="icon" viewBox="0 0 1024 1024" version="1.1" xmlns="http://www.w3.org/2000/svg" p-id="13164" width="512" height="512" xmlns:xlink="http://www.w3.org/1999/xlink"><path d="M820.585833 97.34249v597.899208c0 60.511975-49.010227 109.522202-109.522202 109.522202H124.154982a51.118881 51.118881 0 0 0-51.118881 51.118881v14.185489a51.118881 51.118881 0 0 0 51.118881 51.118881H838.98863c40.256119 0 73.036101-3.067133 73.036101-43.38715V56.702979a55.208391 55.208391 0 1 1 110.352884 0v874.388455c0 47.284965-50.479895 92.780769-90.799912 92.780769H73.036101A73.036101 73.036101 0 0 1 0 950.836102V74.530689C0 34.210672 32.716084 1.494588 73.036101 1.494588h651.765729a95.847901 95.847901 0 0 1 95.847901 95.847902zM416.874472 256.450006a118.915296 118.915296 0 1 0-166.775348 166.775348l-0.638986 0.638986 122.940908 123.068706a63.898601 63.898601 0 0 0 90.41652 0L585.822373 423.86434l-0.702884-0.638986a118.915296 118.915296 0 1 0-166.775349-166.775348l-0.702884-0.766783-0.766784 0.702884z" fill="#d81e06" p-id="13165"></path></svg>