<?xml version="1.0" standalone="no"?><!DOCTYPE svg PUBLIC "-//W3C//DTD SVG 1.1//EN" "http://www.w3.org/Graphics/SVG/1.1/DTD/svg11.dtd"><svg t="1713707337842" class="icon" viewBox="0 0 1024 1024" version="1.1" xmlns="http://www.w3.org/2000/svg" p-id="25945" width="512" height="512" xmlns:xlink="http://www.w3.org/1999/xlink"><path d="M75.129943 1023.956484A72.762134 72.762134 0 0 1 0 953.946128V165.849668A72.634144 72.634144 0 0 1 75.129943 96.031297l85.369117 1.599871v33.341312A116.854579 116.854579 0 0 0 273.065984 245.139276a121.590197 121.590197 0 0 0 112.630919-119.030404V96.031297h271.978072v30.077575a121.206228 121.206228 0 0 0 112.630919 119.030404A121.206228 121.206228 0 0 0 883.128798 126.108872V96.031297h65.914685A68.858448 68.858448 0 0 1 1023.917447 161.050055v792.896073A72.634144 72.634144 0 0 1 948.851499 1023.956484z m-7.679381-61.051078h891.320137V300.174838H67.450562z m326.373686-19.198452a188.976764 188.976764 0 0 0-16.638659-42.236595c45.436337 1.919845 87.096978 1.919845 98.616049 1.279897s14.654818-3.775696 14.654819-12.15902v-74.873963H231.021374v-42.236595h259.179104v-38.396904a583.31297 583.31297 0 0 0 92.15257-38.396904H337.252809v-38.396905H639.948404l9.599226-2.623788 30.077575 25.021983a591.056346 591.056346 0 0 1-142.708494 74.873963v17.918555h256.61931v42.236595H536.916711v75.513911c0 27.517781-6.399484 39.036853-28.15773 46.076286a359.842988 359.842988 0 0 1-91.192647 6.399484zM219.502303 657.714012a616.526293 616.526293 0 0 0 216.942509-122.29414H232.301271v-40.956698h254.699465v-62.714944c-68.474479 5.759536-138.228855 9.599226-202.927639 11.519072a117.558522 117.558522 0 0 0-10.879123-38.972858 2518.900914 2518.900914 0 0 0 415.390509-40.31675l38.972858 33.917266a1373.713244 1373.713244 0 0 1-193.840372 29.437626v67.194583h259.179104v40.956698H587.472635a593.808124 593.808124 0 0 0 218.222406 119.030403 253.931527 253.931527 0 0 0-30.717524 37.756956 617.934179 617.934179 0 0 1-241.260548-155.507463v104.31159h-46.716233V541.179407a651.467475 651.467475 0 0 1-237.484853 153.587617 408.159092 408.159092 0 0 0-30.01358-37.053012z m475.609654-530.261248v-58.363294a74.04203 74.04203 0 0 1 147.700091 0v58.363294a74.04203 74.04203 0 0 1-147.700091 0z m-497.111921 0v-58.363294A71.610226 71.610226 0 0 1 271.914077 0.039037 71.610226 71.610226 0 0 1 345.572138 69.08947v58.363294a71.546232 71.546232 0 0 1-73.658061 68.986438 71.482237 71.482237 0 0 1-73.914041-68.986438z" p-id="25946" fill="#e98f36"></path></svg>