<?xml version="1.0" standalone="no"?><!DOCTYPE svg PUBLIC "-//W3C//DTD SVG 1.1//EN" "http://www.w3.org/Graphics/SVG/1.1/DTD/svg11.dtd"><svg t="1713790010336" class="icon" viewBox="0 0 1042 1024" version="1.1" xmlns="http://www.w3.org/2000/svg" p-id="3779" width="521" height="512" xmlns:xlink="http://www.w3.org/1999/xlink"><path d="M928.914286 109.714286h-109.714286v73.142857h31.085714l-31.085714 31.085714v104.228572l73.142857-73.142858v36.571429l-73.142857 73.142857v104.228572l73.142857-73.142858v36.571429l-73.142857 73.142857v104.228572l73.142857-73.142858v36.571429l-73.142857 73.142857v104.228572l73.142857-73.142858v36.571429l-73.142857 73.142857v138.971429h109.714286c20.114286 0 36.571429-16.457143 36.571428-36.571429v-731.428571c0-21.942857-16.457143-38.4-36.571428-38.4z m-36.571429 731.428571h-34.742857l34.742857-34.742857V841.142857z" fill="#18ebec" p-id="3780"></path><path d="M453.485714 607.085714L548.571429 512l-95.085715-95.085714v190.171428z" fill="#18ebec" p-id="3781"></path><path d="M124.342857 109.714286c-20.114286 0-36.571429 16.457143-36.571428 36.571428v731.428572c0 20.114286 16.457143 36.571429 36.571428 36.571428h621.714286V109.714286h-621.714286z m502.857143 427.885714l-182.857143 182.857143c-7.314286 7.314286-16.457143 10.971429-25.6 10.971428-5.485714 0-9.142857 0-14.628571-3.657142-12.8-5.485714-21.942857-18.285714-21.942857-32.914286V329.142857c0-14.628571 9.142857-27.428571 21.942857-32.914286 12.8-5.485714 29.257143-1.828571 40.228571 7.314286l182.857143 182.857143c12.8 14.628571 12.8 38.4 0 51.2z" fill="#18ebec" p-id="3782"></path></svg>