<?xml version="1.0" standalone="no"?><!DOCTYPE svg PUBLIC "-//W3C//DTD SVG 1.1//EN" "http://www.w3.org/Graphics/SVG/1.1/DTD/svg11.dtd"><svg t="1713837749211" class="icon" viewBox="0 0 1024 1024" version="1.1" xmlns="http://www.w3.org/2000/svg" p-id="5455" width="512" height="512" xmlns:xlink="http://www.w3.org/1999/xlink"><path d="M287.583539 687.288948h574.002621v100.311138s-195.049434 0-217.340798 206.195116h-156.039547s-22.291364-211.767957-217.340798-206.195116v-100.311138zM755.702182 280.471557a116.138006 116.138006 0 0 0-115.692179 133.748183H470.14981a117.029661 117.029661 0 1 0-232.721839-16.718523A119.983266 119.983266 0 0 0 294.883961 498.481096C322.24661 514.530878 353.677433 514.530878 384.606701 514.530878q169.525823 0 339.051645-0.668741c36.000553 0 75.623452-2.006223 105.048052-24.910599A117.029661 117.029661 0 0 0 755.702182 280.471557z" fill="#FDB9D0" p-id="5456"></path><path d="M223.495868 518.487595a20.006499 20.006499 0 0 0 11.145682 2.229136h538.949451a20.117956 20.117956 0 0 0 11.145682-2.229136 152.472929 152.472929 0 0 0 75.679181-131.40759A155.203621 155.203621 0 0 0 733.466546 235.888829V21.891735a20.062228 20.062228 0 0 0-40.124455 0v211.767958a153.698954 153.698954 0 0 0-135.810135 131.184676H455.103139a151.302633 151.302633 0 0 0-131.40759-131.40759V21.891735a20.062228 20.062228 0 1 0-39.95727 0v211.767958A151.915645 151.915645 0 0 0 149.990096 384.850868a159.160338 159.160338 0 0 0 73.505772 133.748184z m80.137453-245.205003a111.45682 111.45682 0 0 1 111.45682 111.45682 20.006499 20.006499 0 0 0 20.062228 20.062227h142.386087a20.006499 20.006499 0 0 0 20.062227-20.062227 110.230795 110.230795 0 0 1 111.45682-111.45682 111.45682 111.45682 0 0 1 60.130954 204.913363H241.273231a112.404203 112.404203 0 0 1-51.214409-93.345087c0-60.130954 51.214409-111.45682 113.574499-111.456819z m494.366724 394.167042H212.350186a20.006499 20.006499 0 0 0-20.062227 20.062228v100.311137a20.006499 20.006499 0 0 0 20.062227 20.062228 196.219731 196.219731 0 0 1 195.941089 195.941089 20.006499 20.006499 0 0 0 20.062228 20.062227h153.643225a20.006499 20.006499 0 0 0 20.062228-20.062227 196.219731 196.219731 0 0 1 195.941089-195.941089 20.006499 20.006499 0 0 0 20.062227-20.062228v-100.311137c2.229136-11.145682-8.916546-20.062228-20.062227-20.062228z m-20.0065 102.428817a234.059321 234.059321 0 0 0-213.774179 216.003317H448.41573a234.059321 234.059321 0 0 0-213.829908-216.003317v-59.90804h545.63686z" fill="#3D3D3D" p-id="5457"></path><path d="M306.029643 1.829508a21.065339 21.065339 0 0 1 22.291364 22.291364v222.913639a21.065339 21.065339 0 0 1-22.291364 22.291364 21.00961 21.00961 0 0 1-22.291364-22.291364V24.120872a21.00961 21.00961 0 0 1 22.291364-22.291364z m407.374676 0a22.291364 22.291364 0 0 1 22.291363 22.291364v222.913639a22.291364 22.291364 0 0 1-44.582727 0V24.120872a22.291364 22.291364 0 0 1 22.291364-22.291364z" fill="#3D3D3D" p-id="5458"></path></svg>