<?xml version="1.0" standalone="no"?><!DOCTYPE svg PUBLIC "-//W3C//DTD SVG 1.1//EN" "http://www.w3.org/Graphics/SVG/1.1/DTD/svg11.dtd"><svg t="1713789909845" class="icon" viewBox="0 0 1024 1024" version="1.1" xmlns="http://www.w3.org/2000/svg" p-id="2465" width="512" height="512" xmlns:xlink="http://www.w3.org/1999/xlink"><path d="M569.856 624.298667c27.477333-14.08 62.592-15.232 83.072 6.954666C698.026667 680.192 725.333333 743.893333 725.333333 813.568v31.018667c0 34.304-29.696 62.08-66.389333 62.08H194.389333c-36.693333 0-66.389333-27.776-66.389333-62.08v-31.018667c0-69.674667 27.306667-133.376 72.405333-182.314667 20.48-22.186667 55.594667-21.034667 83.072-6.954666 42.496 21.76 91.306667 34.133333 143.189334 34.133333 51.882667 0 100.693333-12.373333 143.189333-34.133333z m292.949333-439.338667c5.205333 9.728 12.586667 26.752 19.797334 50.090667 28.501333 91.946667 28.501333 196.352-18.858667 303.701333a26.282667 26.282667 0 0 1-35.242667 13.653333 27.776 27.776 0 0 1-13.226666-36.352c41.386667-93.781333 41.386667-184.448 16.64-264.362666a244.48 244.48 0 0 0-15.658667-40.106667 27.861333 27.861333 0 0 1 10.325333-37.290667 26.197333 26.197333 0 0 1 36.224 10.666667zM426.666667 224c91.648 0 165.930667 69.461333 165.930666 155.136 0 85.717333-74.282667 155.178667-165.930666 155.178667-91.648 0-165.930667-69.461333-165.930667-155.178667C260.736 293.461333 335.018667 224 426.666667 224z m312.490666 35.157333c2.901333 5.973333 6.826667 16.085333 10.666667 29.738667a271.957333 271.957333 0 0 1-9.813333 175.786667 26.325333 26.325333 0 0 1-34.730667 14.933333 27.733333 27.733333 0 0 1-14.549333-35.754667 216.32 216.32 0 0 0 7.893333-139.818666 135.125333 135.125333 0 0 0-7.082667-20.352 27.818667 27.818667 0 0 1 11.904-36.821334 26.24 26.24 0 0 1 35.712 12.288z" fill="#1afa29" p-id="2466"></path></svg>