<?xml version="1.0" standalone="no"?><!DOCTYPE svg PUBLIC "-//W3C//DTD SVG 1.1//EN" "http://www.w3.org/Graphics/SVG/1.1/DTD/svg11.dtd"><svg t="1713794129395" class="icon" viewBox="0 0 1157 1024" version="1.1" xmlns="http://www.w3.org/2000/svg" p-id="14449" width="578.5" height="512" xmlns:xlink="http://www.w3.org/1999/xlink"><path d="M1111.091018 885.113623c0 50.925005-41.665913 92.590918-92.590919 92.590918H138.886377c-50.925005 0-92.590918-41.665913-92.590918-92.590918V138.886377c0-50.925005 41.665913-92.590918 92.590918-92.590918h879.613722c50.925005 0 92.590918 41.665913 92.590919 92.590918v746.227246z" fill="#E0E9FF" p-id="14450"></path><path d="M688.644954 510.842614m-336.799465 0a336.799465 336.799465 0 1 0 673.598929 0 336.799465 336.799465 0 1 0-673.598929 0Z" fill="#6E6E96" opacity=".17" p-id="14451"></path><path d="M688.644954 870.789808c-198.477892 0-359.947194-161.473932-359.947195-359.947194 0-198.477892 161.469302-359.947194 359.947195-359.947195 198.473263 0 359.947194 161.469302 359.947194 359.947195 0 198.473263-161.473932 359.947194-359.947194 359.947194z m0-673.59893c-172.945946 0-313.651735 140.705789-313.651736 313.651736s140.705789 313.651735 313.651736 313.651735 313.651735-140.705789 313.651735-313.651735-140.705789-313.651735-313.651735-313.651736z" fill="#282836" opacity=".17" p-id="14452"></path><path d="M861.340905 384.136572a22.013491 22.013491 0 0 0-26.402301-21.564425l-212.019314 43.304772a22.004232 22.004232 0 0 0-17.601533 21.559795v110.058195c-22.041268-1.976816-48.22598 8.175778-68.966346 28.916144-31.60128 31.592021-38.601154 75.822703-15.643235 98.780621s67.179341 15.953415 98.780621-15.643236c12.245149-12.245149 20.772772-26.379153 25.323616-40.439083 2.824023-3.699007 4.518437-8.305405 4.518437-13.319204V445.403982l168.006221-34.314194v101.248169c-22.101452-2.097184-48.443568 8.032262-69.290414 28.879107-31.60128 31.596651-38.605783 75.831962-15.652495 98.78988 22.957918 22.953289 67.18397 15.939527 98.785251-15.657124 12.03219-12.02756 20.476482-25.874532 25.08288-39.684467a21.851457 21.851457 0 0 0 5.087871-14.055302V384.136572h-0.009259z" fill="#6E6E96" opacity=".7" p-id="14453"></path><path d="M1018.500099 954.556811H138.886377c-63.81829 0-115.738648-49.85558-115.738647-111.136879h46.295459c0 35.753983 31.152214 64.84142 69.443188 64.84142h879.613722c38.290974 0 69.443189-29.087437 69.443189-64.84142h46.295459c0 61.281299-51.920357 111.136879-115.738648 111.136879z" fill="#6E6E96" opacity=".15" p-id="14454"></path><path d="M1018.500099 46.295459H138.886377c-50.925005 0-92.590918 41.665913-92.590918 92.590918v746.227246c0 50.925005 41.665913 92.590918 92.590918 92.590918h15.768234L1070.18435 62.170172A91.896486 91.896486 0 0 0 1018.500099 46.295459z" fill="#FFFFFF" opacity=".1" p-id="14455"></path><path d="M729.588658 46.295459H138.886377c-50.925005 0-92.590918 41.665913-92.590918 92.590918v590.702281L729.588658 46.295459z" fill="#FFFFFF" opacity=".2" p-id="14456"></path><path d="M437.927265 46.295459H138.886377c-50.925005 0-92.590918 41.665913-92.590918 92.590918v299.040888L437.927265 46.295459z" fill="#FFFFFF" opacity=".25" p-id="14457"></path><path d="M243.05116 46.295459h46.295459v931.409082h-46.295459z" fill="#6E6E96" p-id="14458"></path><path d="M683.293199 46.295459l424.608061 424.608062V296.726115L857.470604 46.295459z" fill="#FF94B3" p-id="14459"></path><path d="M636.724596 28.04116l481.468145 481.472774-32.735519 32.730889-481.472774-481.468144z" fill="#6E6E96" opacity=".15" p-id="14460"></path><path d="M666.927754 62.665533l424.608062 424.608062 39.513174 39.517804V287.138326l-6.782285-6.777655-250.430656-250.430657L867.058394 23.14773H627.414579l39.513175 39.517803z m174.177405 0l250.430657 250.430657-6.782285-16.370075v174.177406l39.513174-16.370074-424.608062-424.603433L683.293199 69.443189h174.177405l-16.365445-6.777656z" fill="#6E6E96" p-id="14461"></path><path d="M287.80498 55.989728h46.295459v903.196629h-46.295459z" fill="#FFFFFF" opacity=".15" p-id="14462"></path><path d="M1087.943288 885.113623c0 38.290974-31.152214 69.443189-69.443189 69.443188H138.886377c-38.290974 0-69.443189-31.152214-69.443188-69.443188V138.886377c0-38.290974 31.152214-69.443189 69.443188-69.443188h879.613722c38.290974 0 69.443189 31.152214 69.443189 69.443188v746.227246zM1134.238747 138.886377c0-63.81829-51.920357-115.738648-115.738648-115.738647H138.886377C75.068087 23.14773 23.14773 75.068087 23.14773 138.886377v746.227246c0 63.81829 51.920357 115.738648 115.738647 115.738647h879.613722c63.81829 0 115.738648-51.920357 115.738648-115.738647V138.886377z" fill="#6E6E96" p-id="14463"></path><path d="M98.595439 172.668174h46.295459v195.815903h-46.295459zM98.595439 430.982947h46.295459v97.220464h-46.295459z" fill="#FFFFFF" p-id="14464"></path></svg>